{
	"asset":{
		"generator":"Khronos glTF Blender I/O v3.6.28",
		"version":"2.0"
	},
	"scene":0,
	"scenes":[
		{
			"name":"Scene",
			"nodes":[
				0
			]
		}
	],
	"nodes":[
		{
			"mesh":0,
			"name":"Cube.013",
			"translation":[
				0,
				-0.5362667441368103,
				0
			]
		}
	],
	"materials":[
		{
			"doubleSided":true,
			"name":"Base.001",
			"pbrMetallicRoughness":{
				"baseColorTexture":{
					"index":0
				},
				"metallicRoughnessTexture":{
					"index":1
				}
			}
		},
		{
			"doubleSided":true,
			"name":"Windows.006",
			"pbrMetallicRoughness":{
				"baseColorTexture":{
					"index":2
				},
				"metallicRoughnessTexture":{
					"index":3
				}
			}
		},
		{
			"doubleSided":true,
			"name":"White.003",
			"pbrMetallicRoughness":{
				"baseColorTexture":{
					"index":4
				},
				"metallicRoughnessTexture":{
					"index":5
				}
			}
		},
		{
			"doubleSided":true,
			"name":"Black.006",
			"pbrMetallicRoughness":{
				"baseColorTexture":{
					"index":6
				},
				"metallicRoughnessTexture":{
					"index":7
				}
			}
		},
		{
			"doubleSided":true,
			"name":"black gloss.006",
			"pbrMetallicRoughness":{
				"baseColorTexture":{
					"index":8
				},
				"metallicRoughnessTexture":{
					"index":9
				}
			}
		},
		{
			"doubleSided":true,
			"name":"gray.001",
			"pbrMetallicRoughness":{
				"baseColorFactor":[
					0.06268271803855896,
					0.058456532657146454,
					0.06372100114822388,
					1
				],
				"metallicFactor":0,
				"roughnessFactor":0.4000000059604645
			}
		},
		{
			"doubleSided":true,
			"name":"Yellow.001",
			"pbrMetallicRoughness":{
				"baseColorTexture":{
					"index":10
				},
				"metallicRoughnessTexture":{
					"index":11
				}
			}
		},
		{
			"doubleSided":true,
			"name":"Oraange.003",
			"pbrMetallicRoughness":{
				"baseColorTexture":{
					"index":12
				},
				"metallicRoughnessTexture":{
					"index":13
				}
			}
		}
	],
	"meshes":[
		{
			"name":"Cube.018",
			"primitives":[
				{
					"attributes":{
						"POSITION":0,
						"NORMAL":1,
						"TEXCOORD_0":2,
						"TEXCOORD_1":3
					},
					"indices":4,
					"material":0
				},
				{
					"attributes":{
						"POSITION":5,
						"NORMAL":6,
						"TEXCOORD_0":7,
						"TEXCOORD_1":8
					},
					"indices":9,
					"material":1
				},
				{
					"attributes":{
						"POSITION":10,
						"NORMAL":11,
						"TEXCOORD_0":12,
						"TEXCOORD_1":13
					},
					"indices":14,
					"material":2
				},
				{
					"attributes":{
						"POSITION":15,
						"NORMAL":16,
						"TEXCOORD_0":17,
						"TEXCOORD_1":18
					},
					"indices":19,
					"material":3
				},
				{
					"attributes":{
						"POSITION":20,
						"NORMAL":21,
						"TEXCOORD_0":22,
						"TEXCOORD_1":23
					},
					"indices":24,
					"material":4
				},
				{
					"attributes":{
						"POSITION":25,
						"NORMAL":26,
						"TEXCOORD_0":27,
						"TEXCOORD_1":28
					},
					"indices":29,
					"material":5
				},
				{
					"attributes":{
						"POSITION":30,
						"NORMAL":31,
						"TEXCOORD_0":32,
						"TEXCOORD_1":33
					},
					"indices":34,
					"material":6
				},
				{
					"attributes":{
						"POSITION":35,
						"NORMAL":36,
						"TEXCOORD_0":37,
						"TEXCOORD_1":38
					},
					"indices":39
				},
				{
					"attributes":{
						"POSITION":40,
						"NORMAL":41,
						"TEXCOORD_0":42,
						"TEXCOORD_1":43
					},
					"indices":44,
					"material":7
				}
			]
		}
	],
	"textures":[
		{
			"sampler":0,
			"source":0
		},
		{
			"sampler":0,
			"source":1
		},
		{
			"sampler":0,
			"source":2
		},
		{
			"sampler":0,
			"source":3
		},
		{
			"sampler":0,
			"source":2
		},
		{
			"sampler":0,
			"source":4
		},
		{
			"sampler":0,
			"source":5
		},
		{
			"sampler":0,
			"source":6
		},
		{
			"sampler":0,
			"source":7
		},
		{
			"sampler":0,
			"source":8
		},
		{
			"sampler":0,
			"source":9
		},
		{
			"sampler":0,
			"source":10
		},
		{
			"sampler":0,
			"source":11
		},
		{
			"sampler":0,
			"source":12
		}
	],
	"images":[
		{
			"bufferView":5,
			"mimeType":"image/png",
			"name":"Base"
		},
		{
			"bufferView":6,
			"mimeType":"image/png",
			"name":"Base.005_Metallic.png-Base"
		},
		{
			"bufferView":12,
			"mimeType":"image/png",
			"name":"White"
		},
		{
			"bufferView":13,
			"mimeType":"image/png",
			"name":"Windows.004_Metallic.png-Windows.004_Roughness"
		},
		{
			"bufferView":19,
			"mimeType":"image/png",
			"name":"White.004_Metallic-White"
		},
		{
			"bufferView":25,
			"mimeType":"image/png",
			"name":"Black"
		},
		{
			"bufferView":26,
			"mimeType":"image/png",
			"name":"Black.004_Metallic-Black"
		},
		{
			"bufferView":32,
			"mimeType":"image/png",
			"name":"black gloss"
		},
		{
			"bufferView":33,
			"mimeType":"image/png",
			"name":"black gloss.004_Metallic.png-black gloss.004_Roughness"
		},
		{
			"bufferView":44,
			"mimeType":"image/png",
			"name":"Yellow"
		},
		{
			"bufferView":45,
			"mimeType":"image/png",
			"name":"Yellow.005_Metallic-Yellow"
		},
		{
			"bufferView":56,
			"mimeType":"image/png",
			"name":"Oraange"
		},
		{
			"bufferView":57,
			"mimeType":"image/png",
			"name":"Oraange.004_Metallic-White"
		}
	],
	"accessors":[
		{
			"bufferView":0,
			"componentType":5126,
			"count":3371,
			"max":[
				1.0646470785140991,
				1.2598223686218262,
				2.7343921661376953
			],
			"min":[
				-0.9601396322250366,
				-0.8633439540863037,
				-4.383376121520996
			],
			"type":"VEC3"
		},
		{
			"bufferView":1,
			"componentType":5126,
			"count":3371,
			"type":"VEC3"
		},
		{
			"bufferView":2,
			"componentType":5126,
			"count":3371,
			"type":"VEC2"
		},
		{
			"bufferView":3,
			"componentType":5126,
			"count":3371,
			"type":"VEC2"
		},
		{
			"bufferView":4,
			"componentType":5123,
			"count":10647,
			"type":"SCALAR"
		},
		{
			"bufferView":7,
			"componentType":5126,
			"count":332,
			"max":[
				1.028027892112732,
				1.1006579399108887,
				2.7120227813720703
			],
			"min":[
				-0.9382844567298889,
				-0.43204301595687866,
				-4.37356424331665
			],
			"type":"VEC3"
		},
		{
			"bufferView":8,
			"componentType":5126,
			"count":332,
			"type":"VEC3"
		},
		{
			"bufferView":9,
			"componentType":5126,
			"count":332,
			"type":"VEC2"
		},
		{
			"bufferView":10,
			"componentType":5126,
			"count":332,
			"type":"VEC2"
		},
		{
			"bufferView":11,
			"componentType":5123,
			"count":996,
			"type":"SCALAR"
		},
		{
			"bufferView":14,
			"componentType":5126,
			"count":62,
			"max":[
				0.8194140195846558,
				1.1577008962631226,
				2.705850124359131
			],
			"min":[
				-0.9127636551856995,
				-0.832768976688385,
				-4.383375644683838
			],
			"type":"VEC3"
		},
		{
			"bufferView":15,
			"componentType":5126,
			"count":62,
			"type":"VEC3"
		},
		{
			"bufferView":16,
			"componentType":5126,
			"count":62,
			"type":"VEC2"
		},
		{
			"bufferView":17,
			"componentType":5126,
			"count":62,
			"type":"VEC2"
		},
		{
			"bufferView":18,
			"componentType":5123,
			"count":138,
			"type":"SCALAR"
		},
		{
			"bufferView":20,
			"componentType":5126,
			"count":324,
			"max":[
				1.0816497802734375,
				0.7226662635803223,
				1.385697841644287
			],
			"min":[
				-0.9856781959533691,
				-1.114758849143982,
				-2.8249382972717285
			],
			"type":"VEC3"
		},
		{
			"bufferView":21,
			"componentType":5126,
			"count":324,
			"type":"VEC3"
		},
		{
			"bufferView":22,
			"componentType":5126,
			"count":324,
			"type":"VEC2"
		},
		{
			"bufferView":23,
			"componentType":5126,
			"count":324,
			"type":"VEC2"
		},
		{
			"bufferView":24,
			"componentType":5123,
			"count":882,
			"type":"SCALAR"
		},
		{
			"bufferView":27,
			"componentType":5126,
			"count":130,
			"max":[
				1.0522537231445312,
				1.2583956718444824,
				2.7120227813720703
			],
			"min":[
				-0.9477462768554688,
				-0.3293118178844452,
				2.5582222938537598
			],
			"type":"VEC3"
		},
		{
			"bufferView":28,
			"componentType":5126,
			"count":130,
			"type":"VEC3"
		},
		{
			"bufferView":29,
			"componentType":5126,
			"count":130,
			"type":"VEC2"
		},
		{
			"bufferView":30,
			"componentType":5126,
			"count":130,
			"type":"VEC2"
		},
		{
			"bufferView":31,
			"componentType":5123,
			"count":444,
			"type":"SCALAR"
		},
		{
			"bufferView":34,
			"componentType":5126,
			"count":2346,
			"max":[
				1.2684171199798584,
				1.1287872791290283,
				2.858944892883301
			],
			"min":[
				-1.163909673690796,
				-1.2756024599075317,
				-3.90767240524292
			],
			"type":"VEC3"
		},
		{
			"bufferView":35,
			"componentType":5126,
			"count":2346,
			"type":"VEC3"
		},
		{
			"bufferView":36,
			"componentType":5126,
			"count":2346,
			"type":"VEC2"
		},
		{
			"bufferView":37,
			"componentType":5126,
			"count":2346,
			"type":"VEC2"
		},
		{
			"bufferView":38,
			"componentType":5123,
			"count":7575,
			"type":"SCALAR"
		},
		{
			"bufferView":39,
			"componentType":5126,
			"count":265,
			"max":[
				0.9732137322425842,
				1.155322551727295,
				2.7134623527526855
			],
			"min":[
				-0.8687064051628113,
				-0.7930988073348999,
				-4.375998497009277
			],
			"type":"VEC3"
		},
		{
			"bufferView":40,
			"componentType":5126,
			"count":265,
			"type":"VEC3"
		},
		{
			"bufferView":41,
			"componentType":5126,
			"count":265,
			"type":"VEC2"
		},
		{
			"bufferView":42,
			"componentType":5126,
			"count":265,
			"type":"VEC2"
		},
		{
			"bufferView":43,
			"componentType":5123,
			"count":756,
			"type":"SCALAR"
		},
		{
			"bufferView":46,
			"componentType":5126,
			"count":196,
			"max":[
				1.262678623199463,
				0.9660860300064087,
				2.719247341156006
			],
			"min":[
				-1.15817129611969,
				-0.7932471036911011,
				-4.375998497009277
			],
			"type":"VEC3"
		},
		{
			"bufferView":47,
			"componentType":5126,
			"count":196,
			"type":"VEC3"
		},
		{
			"bufferView":48,
			"componentType":5126,
			"count":196,
			"type":"VEC2"
		},
		{
			"bufferView":49,
			"componentType":5126,
			"count":196,
			"type":"VEC2"
		},
		{
			"bufferView":50,
			"componentType":5123,
			"count":678,
			"type":"SCALAR"
		},
		{
			"bufferView":51,
			"componentType":5126,
			"count":338,
			"max":[
				1.0866587162017822,
				1.061882734298706,
				1.6888418197631836
			],
			"min":[
				-0.9821513891220093,
				-0.6880630254745483,
				-4.370575904846191
			],
			"type":"VEC3"
		},
		{
			"bufferView":52,
			"componentType":5126,
			"count":338,
			"type":"VEC3"
		},
		{
			"bufferView":53,
			"componentType":5126,
			"count":338,
			"type":"VEC2"
		},
		{
			"bufferView":54,
			"componentType":5126,
			"count":338,
			"type":"VEC2"
		},
		{
			"bufferView":55,
			"componentType":5123,
			"count":720,
			"type":"SCALAR"
		}
	],
	"bufferViews":[
		{
			"buffer":0,
			"byteLength":40452,
			"byteOffset":0,
			"target":34962
		},
		{
			"buffer":0,
			"byteLength":40452,
			"byteOffset":40452,
			"target":34962
		},
		{
			"buffer":0,
			"byteLength":26968,
			"byteOffset":80904,
			"target":34962
		},
		{
			"buffer":0,
			"byteLength":26968,
			"byteOffset":107872,
			"target":34962
		},
		{
			"buffer":0,
			"byteLength":21294,
			"byteOffset":134840,
			"target":34963
		},
		{
			"buffer":0,
			"byteLength":5359,
			"byteOffset":156136
		},
		{
			"buffer":0,
			"byteLength":15949,
			"byteOffset":161496
		},
		{
			"buffer":0,
			"byteLength":3984,
			"byteOffset":177448,
			"target":34962
		},
		{
			"buffer":0,
			"byteLength":3984,
			"byteOffset":181432,
			"target":34962
		},
		{
			"buffer":0,
			"byteLength":2656,
			"byteOffset":185416,
			"target":34962
		},
		{
			"buffer":0,
			"byteLength":2656,
			"byteOffset":188072,
			"target":34962
		},
		{
			"buffer":0,
			"byteLength":1992,
			"byteOffset":190728,
			"target":34963
		},
		{
			"buffer":0,
			"byteLength":5357,
			"byteOffset":192720
		},
		{
			"buffer":0,
			"byteLength":15954,
			"byteOffset":198080
		},
		{
			"buffer":0,
			"byteLength":744,
			"byteOffset":214036,
			"target":34962
		},
		{
			"buffer":0,
			"byteLength":744,
			"byteOffset":214780,
			"target":34962
		},
		{
			"buffer":0,
			"byteLength":496,
			"byteOffset":215524,
			"target":34962
		},
		{
			"buffer":0,
			"byteLength":496,
			"byteOffset":216020,
			"target":34962
		},
		{
			"buffer":0,
			"byteLength":276,
			"byteOffset":216516,
			"target":34963
		},
		{
			"buffer":0,
			"byteLength":15949,
			"byteOffset":216792
		},
		{
			"buffer":0,
			"byteLength":3888,
			"byteOffset":232744,
			"target":34962
		},
		{
			"buffer":0,
			"byteLength":3888,
			"byteOffset":236632,
			"target":34962
		},
		{
			"buffer":0,
			"byteLength":2592,
			"byteOffset":240520,
			"target":34962
		},
		{
			"buffer":0,
			"byteLength":2592,
			"byteOffset":243112,
			"target":34962
		},
		{
			"buffer":0,
			"byteLength":1764,
			"byteOffset":245704,
			"target":34963
		},
		{
			"buffer":0,
			"byteLength":7097,
			"byteOffset":247468
		},
		{
			"buffer":0,
			"byteLength":21394,
			"byteOffset":254568
		},
		{
			"buffer":0,
			"byteLength":1560,
			"byteOffset":275964,
			"target":34962
		},
		{
			"buffer":0,
			"byteLength":1560,
			"byteOffset":277524,
			"target":34962
		},
		{
			"buffer":0,
			"byteLength":1040,
			"byteOffset":279084,
			"target":34962
		},
		{
			"buffer":0,
			"byteLength":1040,
			"byteOffset":280124,
			"target":34962
		},
		{
			"buffer":0,
			"byteLength":888,
			"byteOffset":281164,
			"target":34963
		},
		{
			"buffer":0,
			"byteLength":5357,
			"byteOffset":282052
		},
		{
			"buffer":0,
			"byteLength":15953,
			"byteOffset":287412
		},
		{
			"buffer":0,
			"byteLength":28152,
			"byteOffset":303368,
			"target":34962
		},
		{
			"buffer":0,
			"byteLength":28152,
			"byteOffset":331520,
			"target":34962
		},
		{
			"buffer":0,
			"byteLength":18768,
			"byteOffset":359672,
			"target":34962
		},
		{
			"buffer":0,
			"byteLength":18768,
			"byteOffset":378440,
			"target":34962
		},
		{
			"buffer":0,
			"byteLength":15150,
			"byteOffset":397208,
			"target":34963
		},
		{
			"buffer":0,
			"byteLength":3180,
			"byteOffset":412360,
			"target":34962
		},
		{
			"buffer":0,
			"byteLength":3180,
			"byteOffset":415540,
			"target":34962
		},
		{
			"buffer":0,
			"byteLength":2120,
			"byteOffset":418720,
			"target":34962
		},
		{
			"buffer":0,
			"byteLength":2120,
			"byteOffset":420840,
			"target":34962
		},
		{
			"buffer":0,
			"byteLength":1512,
			"byteOffset":422960,
			"target":34963
		},
		{
			"buffer":0,
			"byteLength":5359,
			"byteOffset":424472
		},
		{
			"buffer":0,
			"byteLength":15955,
			"byteOffset":429832
		},
		{
			"buffer":0,
			"byteLength":2352,
			"byteOffset":445788,
			"target":34962
		},
		{
			"buffer":0,
			"byteLength":2352,
			"byteOffset":448140,
			"target":34962
		},
		{
			"buffer":0,
			"byteLength":1568,
			"byteOffset":450492,
			"target":34962
		},
		{
			"buffer":0,
			"byteLength":1568,
			"byteOffset":452060,
			"target":34962
		},
		{
			"buffer":0,
			"byteLength":1356,
			"byteOffset":453628,
			"target":34963
		},
		{
			"buffer":0,
			"byteLength":4056,
			"byteOffset":454984,
			"target":34962
		},
		{
			"buffer":0,
			"byteLength":4056,
			"byteOffset":459040,
			"target":34962
		},
		{
			"buffer":0,
			"byteLength":2704,
			"byteOffset":463096,
			"target":34962
		},
		{
			"buffer":0,
			"byteLength":2704,
			"byteOffset":465800,
			"target":34962
		},
		{
			"buffer":0,
			"byteLength":1440,
			"byteOffset":468504,
			"target":34963
		},
		{
			"buffer":0,
			"byteLength":5359,
			"byteOffset":469944
		},
		{
			"buffer":0,
			"byteLength":15949,
			"byteOffset":475304
		}
	],
	"samplers":[
		{
			"magFilter":9729,
			"minFilter":9987
		}
	],
	"buffers":[
		{
			"byteLength":491256,
			"uri":"data:application/octet-stream;base64,"
		}
	]
}
