{
  "accessors": [
    {
      "bufferView": 2,
      "componentType": 5126,
      "count": 8431,
      "max": [
        10.717231750488281,
        0.0,
        11.670463562011719
      ],
      "min": [
        -11.684537887573242,
        -22.865644454956055,
        -11.6697359085083
      ],
      "type": "VEC3"
    },
    {
      "bufferView": 2,
      "byteOffset": 101172,
      "componentType": 5126,
      "count": 8431,
      "max": [
        1.0,
        0.9999380111694336,
        0.9998760223388672
      ],
      "min": [
        -0.9998450875282288,
        -0.9999690055847168,
        -0.9996901154518127
      ],
      "type": "VEC3"
    },
    {
      "bufferView": 3,
      "componentType": 5126,
      "count": 8431,
      "max": [
        0.9997215867042542,
        0.9988859295845032,
        0.9998038411140442,
        1.0
      ],
      "min": [
        -0.9999690651893616,
        -0.9998757839202881,
        -0.9999632239341736,
        -1.0
      ],
      "type": "VEC4"
    },
    {
      "bufferView": 1,
      "componentType": 5126,
      "count": 8431,
      "max": [
        0.9911640286445618,
        0.989670991897583
      ],
      "min": [
        0.009108999744057655,
        0.01321600005030632
      ],
      "type": "VEC2"
    },
    {
      "bufferView": 0,
      "componentType": 5125,
      "count": 47064,
      "type": "SCALAR"
    }
  ],
  "asset": {
    "extras": {
      "author": "DJ_Nugget (https://sketchfab.com/DJ_Nugget)",
      "license": "CC-BY-4.0 (http://creativecommons.org/licenses/by/4.0/)",
      "source": "https://sketchfab.com/3d-models/doom-eternal-arachnotron-4f3c3841f6fe44db891755a095abcaa8",
      "title": "DOOM eternal arachnotron"
    },
    "generator": "Sketchfab-15.38.0",
    "version": "2.0"
  },
  "bufferViews": [
    {
      "buffer": 0,
      "byteLength": 188256,
      "name": "floatBufferViews",
      "target": 34963
    },
    {
      "buffer": 0,
      "byteLength": 67448,
      "byteOffset": 188256,
      "byteStride": 8,
      "name": "floatBufferViews",
      "target": 34962
    },
    {
      "buffer": 0,
      "byteLength": 202344,
      "byteOffset": 255704,
      "byteStride": 12,
      "name": "floatBufferViews",
      "target": 34962
    },
    {
      "buffer": 0,
      "byteLength": 134896,
      "byteOffset": 458048,
      "byteStride": 16,
      "name": "floatBufferViews",
      "target": 34962
    }
  ],
  "buffers": [
    {
      "byteLength": 592944,
      "uri": "scene.bin"
    }
  ],
  "extensionsRequired": [
    "KHR_materials_pbrSpecularGlossiness"
  ],
  "extensionsUsed": [
    "KHR_materials_pbrSpecularGlossiness"
  ],
  "images": [
    {
      "uri": "textures/arachnotron_toy_diffuse.png"
    },
    {
      "uri": "textures/arachnotron_toy_specularGlossiness.png"
    },
    {
      "uri": "textures/arachnotron_toy_normal.png"
    }
  ],
  "materials": [
    {
      "doubleSided": true,
      "extensions": {
        "KHR_materials_pbrSpecularGlossiness": {
          "diffuseFactor": [
            1.0,
            1.0,
            1.0,
            1.0
          ],
          "diffuseTexture": {
            "index": 0
          },
          "glossinessFactor": 1.0,
          "specularFactor": [
            1.0,
            1.0,
            1.0
          ],
          "specularGlossinessTexture": {
            "index": 1
          }
        }
      },
      "name": "arachnotron_toy",
      "normalTexture": {
        "index": 2
      }
    }
  ],
  "meshes": [
    {
      "name": "Object_0",
      "primitives": [
        {
          "attributes": {
            "NORMAL": 1,
            "POSITION": 0,
            "TANGENT": 2,
            "TEXCOORD_0": 3
          },
          "indices": 4,
          "material": 0,
          "mode": 4
        }
      ]
    }
  ],
  "nodes": [
    {
      "children": [
        1
      ],
      "matrix": [
        1.0,
        0.0,
        0.0,
        0.0,
        0.0,
        -1.0,
        -4.440892098500626e-16,
        0.0,
        0.0,
        4.440892098500626e-16,
        -1.0,
        0.0,
        0.0,
        0.0,
        0.0,
        1.0
      ],
      "name": "Sketchfab_model"
    },
    {
      "children": [
        2
      ],
      "name": "arachnotron_toy_LOD0.obj.cleaner.materialmerger.gles"
    },
    {
      "mesh": 0,
      "name": "Object_2"
    }
  ],
  "samplers": [
    {
      "magFilter": 9729,
      "minFilter": 9987,
      "wrapS": 10497,
      "wrapT": 10497
    }
  ],
  "scene": 0,
  "scenes": [
    {
      "name": "Sketchfab_Scene",
      "nodes": [
        0
      ]
    }
  ],
  "textures": [
    {
      "sampler": 0,
      "source": 0
    },
    {
      "sampler": 0,
      "source": 1
    },
    {
      "sampler": 0,
      "source": 2
    }
  ]
}
