{
  "accessors": [
    {
      "bufferView": 2,
      "componentType": 5126,
      "count": 10635,
      "max": [
        3.9954159259796143,
        0.046185001730918884,
        8.550618171691895
      ],
      "min": [
        -4.1025471687316895,
        -19.422800064086914,
        -7.758224010467529
      ],
      "type": "VEC3"
    },
    {
      "bufferView": 2,
      "byteOffset": 127620,
      "componentType": 5126,
      "count": 10635,
      "max": [
        1.0,
        0.9999380111694336,
        0.9996901154518127
      ],
      "min": [
        -0.9998450875282288,
        -0.9998760223388672,
        -0.9991022944450378
      ],
      "type": "VEC3"
    },
    {
      "bufferView": 3,
      "componentType": 5126,
      "count": 10635,
      "max": [
        0.9999688863754272,
        0.9998143315315247,
        1.0,
        1.0
      ],
      "min": [
        -0.9999998807907104,
        -0.9998893141746521,
        -1.0,
        -1.0
      ],
      "type": "VEC4"
    },
    {
      "bufferView": 1,
      "componentType": 5126,
      "count": 10635,
      "max": [
        0.99726402759552,
        0.996366024017334
      ],
      "min": [
        0.0043750000186264515,
        0.003872999921441078
      ],
      "type": "VEC2"
    },
    {
      "bufferView": 0,
      "componentType": 5125,
      "count": 48018,
      "type": "SCALAR"
    }
  ],
  "asset": {
    "extras": {
      "author": "DJ_Nugget (https://sketchfab.com/DJ_Nugget)",
      "license": "CC-BY-4.0 (http://creativecommons.org/licenses/by/4.0/)",
      "source": "https://sketchfab.com/3d-models/doom-eternal-slayer-toy-5f7c26b0e19f4010a2edf43bd670a433",
      "title": "DOOM eternal slayer toy"
    },
    "generator": "Sketchfab-15.38.0",
    "version": "2.0"
  },
  "bufferViews": [
    {
      "buffer": 0,
      "byteLength": 192072,
      "name": "floatBufferViews",
      "target": 34963
    },
    {
      "buffer": 0,
      "byteLength": 85080,
      "byteOffset": 192072,
      "byteStride": 8,
      "name": "floatBufferViews",
      "target": 34962
    },
    {
      "buffer": 0,
      "byteLength": 255240,
      "byteOffset": 277152,
      "byteStride": 12,
      "name": "floatBufferViews",
      "target": 34962
    },
    {
      "buffer": 0,
      "byteLength": 170160,
      "byteOffset": 532392,
      "byteStride": 16,
      "name": "floatBufferViews",
      "target": 34962
    }
  ],
  "buffers": [
    {
      "byteLength": 702552,
      "uri": "scene.bin"
    }
  ],
  "extensionsRequired": [
    "KHR_materials_pbrSpecularGlossiness"
  ],
  "extensionsUsed": [
    "KHR_materials_pbrSpecularGlossiness"
  ],
  "images": [
    {
      "uri": "textures/doomslayer_toy_diffuse.png"
    },
    {
      "uri": "textures/doomslayer_toy_specularGlossiness.png"
    },
    {
      "uri": "textures/doomslayer_toy_normal.png"
    }
  ],
  "materials": [
    {
      "doubleSided": true,
      "extensions": {
        "KHR_materials_pbrSpecularGlossiness": {
          "diffuseFactor": [
            1.0,
            1.0,
            1.0,
            1.0
          ],
          "diffuseTexture": {
            "index": 0
          },
          "glossinessFactor": 1.0,
          "specularFactor": [
            1.0,
            1.0,
            1.0
          ],
          "specularGlossinessTexture": {
            "index": 1
          }
        }
      },
      "name": "doomslayer_toy",
      "normalTexture": {
        "index": 2
      }
    }
  ],
  "meshes": [
    {
      "name": "Object_0",
      "primitives": [
        {
          "attributes": {
            "NORMAL": 1,
            "POSITION": 0,
            "TANGENT": 2,
            "TEXCOORD_0": 3
          },
          "indices": 4,
          "material": 0,
          "mode": 4
        }
      ]
    }
  ],
  "nodes": [
    {
      "children": [
        1
      ],
      "matrix": [
        1.0,
        0.0,
        0.0,
        0.0,
        0.0,
        -1.0,
        -4.440892098500626e-16,
        0.0,
        0.0,
        4.440892098500626e-16,
        -1.0,
        0.0,
        0.0,
        0.0,
        0.0,
        1.0
      ],
      "name": "Sketchfab_model"
    },
    {
      "children": [
        2
      ],
      "name": "doomslayer_toy_LOD0.obj.cleaner.materialmerger.gles"
    },
    {
      "mesh": 0,
      "name": "Object_2"
    }
  ],
  "samplers": [
    {
      "magFilter": 9729,
      "minFilter": 9987,
      "wrapS": 10497,
      "wrapT": 10497
    }
  ],
  "scene": 0,
  "scenes": [
    {
      "name": "Sketchfab_Scene",
      "nodes": [
        0
      ]
    }
  ],
  "textures": [
    {
      "sampler": 0,
      "source": 0
    },
    {
      "sampler": 0,
      "source": 1
    },
    {
      "sampler": 0,
      "source": 2
    }
  ]
}
